<svg width="109" height="92" viewBox="0 0 109 92" fill="none" xmlns="http://www.w3.org/2000/svg">
    <g clip-path="url(#clip0_265_543)">
        <path d="M50.3796 34.1882H4.25244V0H50.3796V34.1882ZM6.08369 32.3632H48.5483V1.82499H6.08369V32.3632Z" fill="white"/>
        <path d="M94.3706 34.1882H48.4062V0H94.3706V34.1882ZM50.2375 32.3632H92.5393V1.82499H50.2375V32.3632Z" fill="white"/>
        <path d="M31.5992 17.2766C32.1689 17.4389 32.6776 17.6822 33.1456 18.0066C33.6135 18.3311 34.0205 18.6961 34.3461 19.1422C34.692 19.5883 34.9565 20.075 35.1396 20.6022C35.3431 21.1294 35.4448 21.6972 35.4448 22.3055C35.4448 23.0355 35.3024 23.725 35.0175 24.3536C34.7326 24.9822 34.3664 25.5499 33.8781 26.0163C33.3897 26.4827 32.8404 26.868 32.1892 27.1316C31.5381 27.3952 30.8463 27.5372 30.1138 27.5372H22.5854H22.4633C21.7511 27.5169 21.0797 27.3749 20.4489 27.1113C19.8181 26.8477 19.2688 26.4624 18.8008 25.9961C18.3328 25.5297 17.9665 24.9822 17.6817 24.3738C17.3968 23.7655 17.2544 23.0963 17.2544 22.3866H19.3095C19.3095 22.8125 19.3909 23.218 19.574 23.6033C19.7571 23.9886 19.9809 24.313 20.2861 24.6172C20.571 24.9011 20.9169 25.1444 21.3035 25.3066C21.6901 25.4688 22.1174 25.5499 22.565 25.5499H29.9714V25.5297C30.0121 25.5297 30.0324 25.5297 30.0324 25.5499C30.0324 25.5499 30.0731 25.5702 30.0935 25.5702C30.5411 25.5702 30.9684 25.4891 31.3754 25.3269C31.7823 25.1647 32.1282 24.9213 32.4131 24.6172C32.6979 24.313 32.9421 23.9683 33.1252 23.583C33.3083 23.1977 33.3897 22.7719 33.3897 22.3258C33.3897 22.2852 33.3897 22.265 33.3694 22.2447V22.1838V22.1027V22.0825V22.0622V22.0013V21.9811V21.9608V21.9C33.349 21.8797 33.349 21.8594 33.349 21.8391C33.349 21.758 33.349 21.7175 33.3287 21.6972V21.6363V21.6161C33.3287 21.5958 33.3287 21.5958 33.3083 21.5958C33.3083 21.5958 33.288 21.5958 33.288 21.5755V21.4944L33.2676 21.4741V21.4133C33.2676 21.393 33.2676 21.3727 33.2473 21.3525C33.2473 21.3119 33.2473 21.2916 33.227 21.2916C33.227 21.2916 33.2066 21.2511 33.2066 21.2308C33.1863 21.2308 33.1863 21.2308 33.1863 21.2105C33.1863 21.1902 33.1863 21.17 33.1659 21.17C33.1659 21.17 33.1456 21.1294 33.1456 21.1091C33.1252 21.1091 33.1252 21.1091 33.1252 21.0889V21.0686C33.1049 21.0483 33.1049 21.028 33.1049 21.0077C33.0845 20.9875 33.0845 20.9672 33.0845 20.9469C33.0642 20.9266 33.0642 20.9064 33.0642 20.8861C33.0438 20.8455 33.0235 20.8252 33.0031 20.7847C32.9828 20.7644 32.9624 20.7239 32.9421 20.6833L32.9217 20.663V20.6427L32.8607 20.5819L32.8404 20.5211L32.82 20.4602L32.7386 20.3791L32.6776 20.3183C32.6776 20.298 32.6776 20.2777 32.6572 20.2575L32.5962 20.1966L32.5351 20.1358L32.5148 20.075C32.4945 20.075 32.4945 20.075 32.4945 20.0547C32.4945 20.0547 32.4945 20.0344 32.4741 20.0344C32.4538 20.0141 32.4334 19.9939 32.4334 19.9736C32.4334 19.9533 32.3927 19.933 32.3724 19.9127L32.352 19.8925L32.291 19.8316C32.2706 19.8316 32.2706 19.8316 32.2706 19.8114C32.2706 19.8114 32.2706 19.7911 32.2503 19.7911L32.1892 19.7302L32.1282 19.71C32.0875 19.6694 32.0468 19.6491 32.0061 19.6289L31.9451 19.6086C31.9451 19.5883 31.9247 19.5883 31.884 19.5883V19.568L31.823 19.5477C31.8026 19.5477 31.8026 19.5477 31.8026 19.5275C31.8026 19.5275 31.8026 19.5072 31.7823 19.5072C31.7416 19.4666 31.7009 19.4464 31.6602 19.4464C31.5788 19.4058 31.5381 19.3855 31.5178 19.3855C31.4974 19.3652 31.4771 19.3652 31.4567 19.3652C31.4364 19.345 31.4161 19.345 31.3957 19.345C31.3754 19.3247 31.355 19.3247 31.3347 19.3247H31.3143C31.294 19.3044 31.2736 19.3044 31.2533 19.3044C31.2126 19.2841 31.1922 19.2841 31.1922 19.2841C31.1922 19.2841 31.1515 19.2841 31.1312 19.2639C31.1108 19.2639 31.0905 19.2639 31.0701 19.2436C31.0498 19.2436 31.0295 19.2233 31.0091 19.2233H30.9277V19.203H30.8667C30.5208 19.1016 29.9714 18.98 29.2186 18.8177C28.4657 18.6555 27.6315 18.4933 26.7362 18.3311C26.5938 18.2905 26.431 18.2702 26.2886 18.25C26.1461 18.2297 25.9833 18.2094 25.8409 18.1689C25.5764 18.1283 25.3119 18.0877 25.0474 18.0269C24.7829 17.9661 24.5183 17.9255 24.2538 17.885C24.2335 17.885 24.2131 17.885 24.2131 17.8647C24.2131 17.8647 24.1928 17.8444 24.1724 17.8444C24.0911 17.8444 24.0097 17.8241 23.8876 17.7836H23.8062H23.7452C23.7248 17.7633 23.7045 17.7633 23.6638 17.7633C23.6231 17.7633 23.6027 17.7633 23.5824 17.743C23.562 17.743 23.5417 17.7227 23.501 17.7227C23.4603 17.7227 23.4399 17.7227 23.4196 17.7025H23.2975C23.094 17.6619 22.9109 17.6416 22.7278 17.6011C22.565 17.5808 22.4022 17.5403 22.2598 17.4997C22.097 17.4591 21.9343 17.4389 21.7918 17.4186C21.6494 17.3983 21.5273 17.378 21.4459 17.3577C21.3238 17.3375 21.2424 17.3172 21.1611 17.2969C20.5913 17.155 20.0827 16.9116 19.6147 16.5872C19.1467 16.2628 18.7397 15.8978 18.4142 15.4516C18.0683 15.0055 17.8038 14.5189 17.6206 13.9714C17.4172 13.4239 17.3154 12.8561 17.3154 12.268C17.3154 11.5583 17.4579 10.8892 17.7224 10.2403C17.9869 9.61166 18.3735 9.04389 18.8415 8.5775C19.3095 8.11111 19.8588 7.74611 20.4896 7.46222C21.1204 7.17834 21.7918 7.03639 22.5243 7.01611H22.6464H30.1749H30.4801C31.1515 7.05667 31.7823 7.19861 32.3724 7.4825C32.9624 7.74611 33.4711 8.11111 33.8984 8.53694C34.3461 8.96277 34.692 9.46972 34.9768 10.0375C35.2617 10.6053 35.4244 11.2136 35.4855 11.8422H33.4304C33.3694 11.4772 33.2473 11.1122 33.0845 10.7675C32.9014 10.4228 32.6776 10.1389 32.4131 9.87527C32.1486 9.63194 31.823 9.42916 31.4771 9.26694C31.1312 9.125 30.7649 9.02361 30.358 9.02361H30.2766H30.1545H30.0121H22.7481H22.6057H22.4836C22.0563 9.04389 21.6494 9.14527 21.2628 9.3075C20.8762 9.46972 20.5506 9.71305 20.2658 10.0172C19.9809 10.3214 19.7571 10.6661 19.5943 11.0311C19.4315 11.4164 19.3502 11.8219 19.3502 12.2478V12.3289V12.41V12.4708V12.5317V12.5722V12.633V12.6533L19.3705 12.6736V12.7344V12.775V12.8358C19.3909 12.8561 19.3909 12.8764 19.3909 12.8967V12.9575V12.9778L19.4112 12.998V13.0589V13.0792L19.4315 13.0994V13.1603C19.4519 13.1805 19.4519 13.2008 19.4519 13.2211C19.4519 13.2414 19.4519 13.2617 19.4722 13.2617C19.4722 13.2617 19.4926 13.2819 19.4926 13.3022C19.5129 13.3428 19.5333 13.363 19.5333 13.4036C19.5333 13.4239 19.5536 13.4644 19.574 13.505C19.574 13.5455 19.574 13.5658 19.5943 13.5861C19.5943 13.6064 19.5943 13.6267 19.6147 13.6469C19.6147 13.6672 19.6147 13.6875 19.635 13.6875C19.635 13.6875 19.6554 13.7078 19.6554 13.728L19.6757 13.7889C19.6961 13.7889 19.6961 13.8092 19.6961 13.8497H19.7164C19.7164 13.8903 19.7164 13.9105 19.7368 13.9105V13.9308L19.7571 13.9511L19.7774 13.9714V13.9916C19.7978 14.0119 19.7978 14.0322 19.7978 14.0525H19.8181C19.8181 14.093 19.8181 14.1133 19.8385 14.1133L19.8995 14.1741V14.1944L19.9199 14.2553L19.9809 14.3161L20.103 14.4378L20.2251 14.5797C20.2454 14.5797 20.2454 14.5797 20.2454 14.6C20.2454 14.6 20.2454 14.6203 20.2658 14.6203L20.3268 14.6811L20.3879 14.7419L20.4489 14.7622C20.4489 14.7825 20.4489 14.7825 20.4693 14.7825V14.8028C20.4896 14.8028 20.5099 14.8028 20.5303 14.823L20.5506 14.8433H20.571C20.571 14.8636 20.571 14.8636 20.5913 14.8636L20.6117 14.8839L20.632 14.9041C20.6524 14.9041 20.6727 14.9041 20.6931 14.9244C20.7134 14.9244 20.7134 14.9244 20.7134 14.9447C20.7134 14.9447 20.7134 14.965 20.7338 14.965L21.0797 15.1678C21.1204 15.1678 21.1611 15.188 21.2018 15.2286C21.2424 15.2286 21.2628 15.2286 21.2831 15.2489H21.3442L21.3645 15.2691H21.4256C21.4459 15.2894 21.4663 15.2894 21.4866 15.2894H21.507C21.507 15.3097 21.5273 15.3097 21.568 15.3097C21.5883 15.3097 21.6087 15.3097 21.629 15.33H21.6494H21.7104L21.7308 15.3503H21.7918C21.8325 15.3503 21.8529 15.3503 21.8732 15.3705H21.9343C21.9749 15.3705 21.9953 15.3705 22.0156 15.3908H22.097H22.1581H22.1784C22.1988 15.3908 22.3208 15.4111 22.5447 15.4516C22.7685 15.4922 23.0533 15.5328 23.3993 15.5936C23.7452 15.6544 24.1521 15.7153 24.6201 15.7964C25.0881 15.8775 25.5764 15.9586 26.0851 16.0397C26.2682 16.0803 26.4106 16.1005 26.4717 16.1208C27.367 16.2628 28.2622 16.4453 29.1779 16.6278C30.1952 16.8914 30.9684 17.0739 31.5992 17.2766Z" fill="white"/>
        <path d="M31.5992 17.2766C32.1689 17.4389 32.6776 17.6822 33.1456 18.0066C33.6135 18.3311 34.0205 18.6961 34.3461 19.1422C34.692 19.5883 34.9565 20.075 35.1396 20.6022C35.3431 21.1294 35.4448 21.6972 35.4448 22.3055C35.4448 23.0355 35.3024 23.725 35.0175 24.3536C34.7326 24.9822 34.3664 25.5499 33.8781 26.0163C33.3897 26.4827 32.8404 26.868 32.1892 27.1316C31.5381 27.3952 30.8463 27.5372 30.1138 27.5372H22.5854H22.4633C21.7511 27.5169 21.0797 27.3749 20.4489 27.1113C19.8181 26.8477 19.2688 26.4624 18.8008 25.9961C18.3328 25.5297 17.9665 24.9822 17.6817 24.3738C17.3968 23.7655 17.2544 23.0963 17.2544 22.3866H19.3095C19.3095 22.8125 19.3909 23.218 19.574 23.6033C19.7571 23.9886 19.9809 24.313 20.2861 24.6172C20.571 24.9011 20.9169 25.1444 21.3035 25.3066C21.6901 25.4688 22.1174 25.5499 22.565 25.5499H29.9714V25.5297C30.0121 25.5297 30.0324 25.5297 30.0324 25.5499C30.0324 25.5499 30.0731 25.5702 30.0935 25.5702C30.5411 25.5702 30.9684 25.4891 31.3754 25.3269C31.7823 25.1647 32.1282 24.9213 32.4131 24.6172C32.6979 24.313 32.9421 23.9683 33.1252 23.583C33.3083 23.1977 33.3897 22.7719 33.3897 22.3258C33.3897 22.2852 33.3897 22.265 33.3694 22.2447V22.1838V22.1027V22.0825V22.0622V22.0013V21.9811V21.9608V21.9C33.349 21.8797 33.349 21.8594 33.349 21.8391C33.349 21.758 33.349 21.7175 33.3287 21.6972V21.6363V21.6161C33.3287 21.5958 33.3287 21.5958 33.3083 21.5958C33.3083 21.5958 33.288 21.5958 33.288 21.5755V21.4944L33.2676 21.4741V21.4133C33.2676 21.393 33.2676 21.3727 33.2473 21.3525C33.2473 21.3119 33.2473 21.2916 33.227 21.2916C33.227 21.2916 33.2066 21.2511 33.2066 21.2308C33.1863 21.2308 33.1863 21.2308 33.1863 21.2105C33.1863 21.1902 33.1863 21.17 33.1659 21.17C33.1659 21.17 33.1456 21.1294 33.1456 21.1091C33.1252 21.1091 33.1252 21.1091 33.1252 21.0889V21.0686C33.1049 21.0483 33.1049 21.028 33.1049 21.0077C33.0845 20.9875 33.0845 20.9672 33.0845 20.9469C33.0642 20.9266 33.0642 20.9064 33.0642 20.8861C33.0438 20.8455 33.0235 20.8252 33.0031 20.7847C32.9828 20.7644 32.9624 20.7239 32.9421 20.6833L32.9217 20.663V20.6427L32.8607 20.5819L32.8404 20.5211L32.82 20.4602L32.7386 20.3791L32.6776 20.3183C32.6776 20.298 32.6776 20.2777 32.6572 20.2575L32.5962 20.1966L32.5351 20.1358L32.5148 20.075C32.4945 20.075 32.4945 20.075 32.4945 20.0547C32.4945 20.0547 32.4945 20.0344 32.4741 20.0344C32.4538 20.0141 32.4334 19.9939 32.4334 19.9736C32.4334 19.9533 32.3927 19.933 32.3724 19.9127L32.352 19.8925L32.291 19.8316C32.2706 19.8316 32.2706 19.8316 32.2706 19.8114C32.2706 19.8114 32.2706 19.7911 32.2503 19.7911L32.1892 19.7302L32.1282 19.71C32.0875 19.6694 32.0468 19.6491 32.0061 19.6289L31.9451 19.6086C31.9451 19.5883 31.9247 19.5883 31.884 19.5883V19.568L31.823 19.5477C31.8026 19.5477 31.8026 19.5477 31.8026 19.5275C31.8026 19.5275 31.8026 19.5072 31.7823 19.5072C31.7416 19.4666 31.7009 19.4464 31.6602 19.4464C31.5788 19.4058 31.5381 19.3855 31.5178 19.3855C31.4974 19.3652 31.4771 19.3652 31.4567 19.3652C31.4364 19.345 31.4161 19.345 31.3957 19.345C31.3754 19.3247 31.355 19.3247 31.3347 19.3247H31.3143C31.294 19.3044 31.2736 19.3044 31.2533 19.3044C31.2126 19.2841 31.1922 19.2841 31.1922 19.2841C31.1922 19.2841 31.1515 19.2841 31.1312 19.2639C31.1108 19.2639 31.0905 19.2639 31.0701 19.2436C31.0498 19.2436 31.0295 19.2233 31.0091 19.2233H30.9277V19.203H30.8667C30.5208 19.1016 29.9714 18.98 29.2186 18.8177C28.4657 18.6555 27.6315 18.4933 26.7362 18.3311C26.5938 18.2905 26.431 18.2702 26.2886 18.25C26.1461 18.2297 25.9833 18.2094 25.8409 18.1689C25.5764 18.1283 25.3119 18.0877 25.0474 18.0269C24.7829 17.9661 24.5183 17.9255 24.2538 17.885C24.2335 17.885 24.2131 17.885 24.2131 17.8647C24.2131 17.8647 24.1928 17.8444 24.1724 17.8444C24.0911 17.8444 24.0097 17.8241 23.8876 17.7836H23.8062H23.7452C23.7248 17.7633 23.7045 17.7633 23.6638 17.7633C23.6231 17.7633 23.6027 17.7633 23.5824 17.743C23.562 17.743 23.5417 17.7227 23.501 17.7227C23.4603 17.7227 23.4399 17.7227 23.4196 17.7025H23.2975C23.094 17.6619 22.9109 17.6416 22.7278 17.6011C22.565 17.5808 22.4022 17.5403 22.2598 17.4997C22.097 17.4591 21.9343 17.4389 21.7918 17.4186C21.6494 17.3983 21.5273 17.378 21.4459 17.3578C21.3238 17.3375 21.2424 17.3172 21.1611 17.2969C20.5913 17.155 20.0827 16.9116 19.6147 16.5872C19.1467 16.2628 18.7397 15.8978 18.4142 15.4516C18.0683 15.0055 17.8038 14.5189 17.6206 13.9714C17.4172 13.4239 17.3154 12.8561 17.3154 12.268C17.3154 11.5583 17.4579 10.8892 17.7224 10.2403C17.9869 9.61166 18.3735 9.04389 18.8415 8.5775C19.3095 8.11111 19.8588 7.74611 20.4896 7.46222C21.1204 7.17834 21.7918 7.03639 22.5243 7.01611H22.6464H30.1749H30.4801C31.1515 7.05667 31.7823 7.19861 32.3724 7.4825C32.9624 7.74611 33.4711 8.11111 33.8984 8.53694C34.3461 8.96277 34.692 9.46972 34.9768 10.0375C35.2617 10.6053 35.4245 11.2136 35.4855 11.8422H33.4304C33.3694 11.4772 33.2473 11.1122 33.0845 10.7675C32.9014 10.4228 32.6776 10.1389 32.4131 9.87527C32.1486 9.63194 31.823 9.42916 31.4771 9.26694C31.1312 9.125 30.7649 9.02361 30.358 9.02361H30.2766H30.1545H30.0121H22.7481H22.6057H22.4836C22.0563 9.04389 21.6494 9.14527 21.2628 9.3075C20.8762 9.46972 20.5506 9.71305 20.2658 10.0172C19.9809 10.3214 19.7571 10.6661 19.5943 11.0311C19.4315 11.4164 19.3502 11.8219 19.3502 12.2478V12.3289V12.41V12.4708V12.5317V12.5722V12.633V12.6533L19.3705 12.6736V12.7344V12.775V12.8358C19.3909 12.8561 19.3909 12.8764 19.3909 12.8967V12.9575V12.9778L19.4112 12.998V13.0589V13.0792L19.4315 13.0994V13.1603C19.4519 13.1805 19.4519 13.2008 19.4519 13.2211C19.4519 13.2414 19.4519 13.2617 19.4722 13.2617C19.4722 13.2617 19.4926 13.2819 19.4926 13.3022C19.5129 13.3428 19.5333 13.363 19.5333 13.4036C19.5333 13.4239 19.5536 13.4644 19.574 13.505C19.574 13.5455 19.574 13.5658 19.5943 13.5861C19.5943 13.6064 19.5943 13.6267 19.6147 13.6469C19.6147 13.6672 19.6147 13.6875 19.635 13.6875C19.635 13.6875 19.6554 13.7078 19.6554 13.728L19.6757 13.7889C19.6961 13.7889 19.6961 13.8092 19.6961 13.8497H19.7164C19.7164 13.8903 19.7164 13.9105 19.7368 13.9105V13.9308L19.7571 13.9511L19.7774 13.9714V13.9916C19.7978 14.0119 19.7978 14.0322 19.7978 14.0525H19.8181C19.8181 14.093 19.8181 14.1133 19.8385 14.1133L19.8995 14.1741V14.1944L19.9199 14.2553L19.9809 14.3161L20.103 14.4378L20.2251 14.5797C20.2454 14.5797 20.2454 14.5797 20.2454 14.6C20.2454 14.6 20.2454 14.6203 20.2658 14.6203L20.3268 14.6811L20.3879 14.7419L20.4489 14.7622C20.4489 14.7825 20.4489 14.7825 20.4693 14.7825V14.8028C20.4896 14.8028 20.5099 14.8028 20.5303 14.823L20.5506 14.8433H20.571C20.571 14.8636 20.571 14.8636 20.5913 14.8636L20.6117 14.8839L20.632 14.9041C20.6524 14.9041 20.6727 14.9041 20.6931 14.9244C20.7134 14.9244 20.7134 14.9244 20.7134 14.9447C20.7134 14.9447 20.7134 14.965 20.7338 14.965L21.0797 15.1678C21.1204 15.1678 21.1611 15.188 21.2018 15.2286C21.2424 15.2286 21.2628 15.2286 21.2831 15.2489H21.3442L21.3645 15.2691H21.4256C21.4459 15.2894 21.4663 15.2894 21.4866 15.2894H21.507C21.507 15.3097 21.5273 15.3097 21.568 15.3097C21.5883 15.3097 21.6087 15.3097 21.629 15.33H21.6494H21.7104L21.7308 15.3503H21.7918C21.8325 15.3503 21.8529 15.3503 21.8732 15.3705H21.9343C21.9749 15.3705 21.9953 15.3705 22.0156 15.3908H22.097H22.1581H22.1784C22.1988 15.3908 22.3208 15.4111 22.5447 15.4516C22.7685 15.4922 23.0533 15.5328 23.3993 15.5936C23.7452 15.6544 24.1521 15.7153 24.6201 15.7964C25.0881 15.8775 25.5764 15.9586 26.0851 16.0397C26.2682 16.0803 26.4106 16.1005 26.4717 16.1208C27.367 16.2628 28.2622 16.4453 29.1779 16.6278C30.1952 16.8914 30.9684 17.0739 31.5992 17.2766Z" stroke="white" stroke-width="2" stroke-miterlimit="10"/>
        <path d="M80.4934 27.598H78.4587V18.0472H64.9278V27.598H62.8931V6.99585H64.9278V16.0194H78.4587V6.99585H80.4934V27.598Z" fill="white"/>
        <path d="M80.4934 27.598H78.4587V18.0472H64.9278V27.598H62.8931V6.99585H64.9278V16.0194H78.4587V6.99585H80.4934V27.598Z" stroke="white" stroke-width="2" stroke-miterlimit="10"/>
        <path d="M12.3305 53.3507C12.7375 53.4723 13.1241 53.6346 13.4496 53.8576C13.7955 54.0807 14.0804 54.3443 14.3246 54.6687C14.5687 54.9729 14.7722 55.3176 14.9146 55.7029C15.0571 56.0882 15.1385 56.4734 15.1385 56.8993C15.1385 57.4062 15.0367 57.8929 14.8332 58.339C14.6298 58.7851 14.3449 59.1907 13.999 59.5151C13.6531 59.8598 13.2462 60.1234 12.7782 60.3059C12.3102 60.4884 11.8015 60.5898 11.2725 60.5898H5.77873H5.69735C5.16832 60.5695 4.67999 60.4681 4.23235 60.2856C3.76436 60.1031 3.37776 59.8395 3.03186 59.4948C2.68596 59.1704 2.42144 58.7851 2.21797 58.339C2.0145 57.8929 1.91276 57.4265 1.91276 56.9196H3.41846C3.41846 57.2237 3.4795 57.5076 3.62193 57.7915C3.74401 58.0551 3.92714 58.2984 4.13061 58.5012C4.33408 58.704 4.5986 58.8662 4.88346 58.9879C5.16832 59.1095 5.47353 59.1704 5.79908 59.1704H11.1911V59.1501C11.2114 59.1501 11.2318 59.1501 11.2521 59.1501C11.2521 59.1501 11.2725 59.1501 11.3132 59.1501C11.6387 59.1501 11.9439 59.0893 12.2491 58.9676C12.534 58.8459 12.7985 58.6837 13.002 58.4809C13.2055 58.2782 13.3886 58.0145 13.5107 57.7509C13.6328 57.467 13.7141 57.1832 13.7141 56.8587C13.7141 56.8384 13.7141 56.8182 13.6938 56.7979V56.7573V56.7168V56.6965V56.6762V56.6357V56.6154V56.5951V56.5546C13.6735 56.5343 13.6735 56.5343 13.6735 56.514C13.6735 56.4532 13.6735 56.4329 13.6531 56.4126V56.3721V56.3518C13.6531 56.3315 13.6531 56.3315 13.6328 56.3315C13.6328 56.3315 13.6124 56.3315 13.6124 56.3112V56.2707L13.5921 56.2504V56.2098C13.5921 56.1896 13.5921 56.1896 13.5717 56.1693C13.5717 56.149 13.5717 56.1287 13.5514 56.1287C13.5514 56.1287 13.531 56.1084 13.531 56.0882C13.5107 56.0882 13.5107 56.0882 13.5107 56.0679C13.5107 56.0476 13.5107 56.0476 13.4903 56.0476C13.4903 56.0476 13.47 56.0273 13.47 56.0071C13.4496 56.0071 13.4496 56.0071 13.4496 55.9868V55.9665C13.4293 55.9665 13.4293 55.9665 13.4293 55.9462C13.4089 55.9259 13.4089 55.9259 13.4089 55.9057C13.3886 55.8854 13.3886 55.8854 13.3886 55.8651C13.3682 55.8448 13.3682 55.8246 13.3479 55.8043C13.3275 55.784 13.3275 55.7637 13.3072 55.7434L13.2869 55.7232V55.7029L13.2462 55.6623L13.2258 55.6218L13.2055 55.5812L13.1444 55.5204L13.1037 55.4798C13.1037 55.4596 13.1037 55.4596 13.0834 55.4393L13.0427 55.3987L13.002 55.3582L12.9816 55.3176C12.9613 55.3176 12.9613 55.3176 12.9613 55.3176C12.9613 55.3176 12.9613 55.3176 12.941 55.3176C12.9206 55.2973 12.9206 55.2973 12.9003 55.2771C12.9003 55.2568 12.8799 55.2568 12.8392 55.2365L12.8189 55.2162L12.7782 55.1757C12.7578 55.1757 12.7578 55.1757 12.7578 55.1757C12.7578 55.1757 12.7578 55.1757 12.7375 55.1757L12.6968 55.1351L12.6561 55.1148C12.6357 55.0946 12.595 55.0743 12.5747 55.054L12.534 55.0337C12.534 55.0134 12.5137 55.0134 12.4933 55.0134V54.9526L12.4526 54.9323C12.4323 54.9323 12.4323 54.9323 12.4323 54.9323C12.4323 54.9323 12.4323 54.9323 12.4119 54.9323C12.3916 54.9121 12.3509 54.8918 12.3305 54.8918C12.2695 54.8715 12.2491 54.8512 12.2288 54.8512C12.2085 54.8309 12.2085 54.8309 12.1881 54.8309C12.1678 54.8107 12.1678 54.8107 12.1474 54.8107C12.1271 54.7904 12.1271 54.7904 12.1067 54.7904H12.0864C12.066 54.7701 12.066 54.7701 12.0457 54.7701C12.0253 54.7498 12.005 54.7498 11.9846 54.7498C11.9846 54.7498 11.9643 54.7498 11.9236 54.7296C11.9032 54.7296 11.9032 54.7296 11.8829 54.7296C11.8625 54.7296 11.8625 54.7296 11.8422 54.7296H11.8015V54.7093H11.7608C11.5166 54.6484 11.1097 54.5471 10.5603 54.4457C10.011 54.324 9.40054 54.2226 8.74943 54.1009C8.64769 54.0807 8.52561 54.0604 8.42387 54.0401C8.32214 54.0198 8.20005 53.9996 8.09832 53.9793C7.91519 53.959 7.71172 53.9185 7.52859 53.8779C7.34547 53.8373 7.142 53.7968 6.95887 53.7765C6.93853 53.7765 6.93853 53.7765 6.91818 53.7765C6.91818 53.7765 6.89783 53.7765 6.87748 53.7765C6.81644 53.7765 6.7554 53.7562 6.67401 53.7359H6.61297H6.57228C6.55193 53.7157 6.53158 53.7157 6.51123 53.7157C6.49089 53.7157 6.47054 53.7157 6.45019 53.7157C6.42985 53.7157 6.4095 53.7157 6.38915 53.7157C6.3688 53.7157 6.34846 53.7157 6.32811 53.6954H6.24672C6.10429 53.6751 5.96186 53.6548 5.83978 53.6346C5.71769 53.6143 5.59561 53.594 5.49387 53.5737C5.37179 53.5535 5.24971 53.5332 5.14797 53.5129C5.04623 53.4926 4.96485 53.4926 4.88346 53.4723C4.80207 53.4521 4.74103 53.4521 4.67999 53.4318C4.27304 53.3304 3.88644 53.1682 3.56089 52.9451C3.21499 52.7221 2.93013 52.4585 2.68596 52.134C2.44179 51.8298 2.23832 51.4851 2.09589 51.0998C1.95346 50.7146 1.87207 50.309 1.87207 49.8832C1.87207 49.3762 1.97381 48.9099 2.17728 48.4637C2.38075 48.0176 2.64526 47.6324 2.99117 47.2876C3.33707 46.9632 3.72367 46.6996 4.19165 46.4968C4.65964 46.294 5.14797 46.1926 5.677 46.1724H5.75839H11.2521H11.476C11.9643 46.1926 12.4323 46.3143 12.8596 46.4968C13.2869 46.6793 13.6531 46.9429 13.9787 47.2471C14.3042 47.5512 14.5687 47.896 14.7722 48.3015C14.9757 48.7071 15.0978 49.1329 15.1385 49.579H13.6328C13.5921 49.3154 13.5107 49.0721 13.3682 48.8287C13.2462 48.5854 13.0834 48.3826 12.8799 48.2001C12.6764 48.0176 12.4526 47.8757 12.2085 47.7743C11.9643 47.6729 11.6794 47.6121 11.3946 47.5918H11.3335H11.2521H11.1504H5.86012H5.75839H5.677C5.37179 47.6121 5.06658 47.6729 4.78172 47.7946C4.49686 47.9162 4.25269 48.0785 4.04922 48.2812C3.84575 48.484 3.68297 48.7274 3.56089 49.0112C3.43881 49.2951 3.37776 49.579 3.37776 49.8832V49.944V50.0049V50.0454V50.086V50.1062V50.1468V50.1671L3.39811 50.1874V50.2279V50.2482V50.2887C3.41846 50.309 3.41846 50.309 3.41846 50.3293V50.3698V50.3901L3.43881 50.4104V50.451V50.4712L3.45915 50.4915V50.5321C3.4795 50.5523 3.4795 50.5523 3.4795 50.5726C3.4795 50.5929 3.4795 50.5929 3.49985 50.5929L3.52019 50.6132C3.54054 50.6335 3.54054 50.6537 3.56089 50.674C3.56089 50.6943 3.58124 50.7146 3.60158 50.7348C3.60158 50.7551 3.60158 50.7754 3.62193 50.7957C3.62193 50.816 3.62193 50.816 3.64228 50.8362C3.64228 50.8565 3.64228 50.8565 3.66262 50.8565L3.68297 50.8768L3.70332 50.9173C3.72367 50.9173 3.72367 50.9376 3.72367 50.9579H3.74401C3.74401 50.9782 3.74401 50.9985 3.76436 50.9985V51.0187L3.78471 51.039L3.80506 51.0593V51.0796C3.8254 51.0998 3.8254 51.0998 3.8254 51.1201H3.84575C3.84575 51.1404 3.84575 51.1607 3.8661 51.1607L3.90679 51.2012V51.2215L3.92714 51.2621L3.96783 51.3026L4.04922 51.3837L4.13061 51.4851C4.15096 51.4851 4.15096 51.4851 4.15096 51.4851C4.15096 51.4851 4.15096 51.4851 4.1713 51.4851L4.212 51.5257L4.25269 51.5662L4.29339 51.5865C4.29339 51.6068 4.29339 51.6068 4.31374 51.6068V51.6271C4.33408 51.6271 4.33408 51.6271 4.35443 51.6473L4.37478 51.6676H4.39512C4.39512 51.6879 4.39512 51.6879 4.41547 51.6879L4.43582 51.7082L4.45617 51.7285C4.47651 51.7285 4.47651 51.7285 4.49686 51.7487C4.51721 51.7487 4.51721 51.7487 4.51721 51.7487C4.51721 51.7487 4.51721 51.7487 4.53755 51.7487L4.78172 51.8907C4.80207 51.8907 4.84276 51.911 4.86311 51.9312C4.88346 51.9312 4.9038 51.9312 4.92415 51.9515H4.96485L4.98519 51.9718H5.02589C5.04624 51.9921 5.04623 51.9921 5.06658 51.9921H5.08693C5.08693 52.0123 5.10728 52.0123 5.12762 52.0123C5.14797 52.0123 5.14797 52.0123 5.16832 52.0326H5.18867H5.22936L5.24971 52.0529H5.2904C5.31075 52.0529 5.3311 52.0529 5.35144 52.0732H5.39214C5.41248 52.0732 5.43283 52.0732 5.45318 52.0935H5.51422H5.55491H5.57526C5.59561 52.0935 5.677 52.1137 5.83978 52.134C6.00255 52.1543 6.20603 52.1948 6.47054 52.2354C6.71471 52.276 7.01991 52.3165 7.36582 52.3773C7.71172 52.4382 8.05762 52.499 8.42387 52.5598C8.5663 52.5801 8.64769 52.6004 8.70873 52.6207C9.35984 52.7221 10.0313 52.8437 10.6824 52.9857C11.3335 53.1276 11.8625 53.2087 12.3305 53.3507Z" fill="white"/>
        <path d="M31.2126 54.0807H24.9049V60.6304H23.3789V46.0913H32.6776C33.227 46.1319 33.7356 46.2535 34.224 46.4969C34.7123 46.7199 35.1396 47.0241 35.4855 47.3891C35.8314 47.7541 36.1163 48.1596 36.3401 48.626C36.5435 49.0924 36.6656 49.5791 36.6656 50.086C36.6656 50.593 36.5639 51.0594 36.3808 51.5257C36.1976 51.9921 35.9128 52.3774 35.5872 52.7424C35.2413 53.0871 34.8547 53.3913 34.3867 53.6346C33.9188 53.878 33.4304 54.0199 32.9014 54.101H31.2126V54.0807ZM32.6369 52.6816C32.9828 52.641 33.3083 52.5396 33.6135 52.3977C33.9188 52.2355 34.1833 52.053 34.4071 51.8299C34.6309 51.6069 34.7937 51.3432 34.9361 51.0391C35.0582 50.7349 35.1396 50.4307 35.1396 50.086C35.1396 49.7413 35.0785 49.4169 34.9361 49.1127C34.7937 48.8085 34.6106 48.5449 34.3664 48.3016C34.1222 48.0785 33.8374 47.8757 33.5118 47.7541C33.1863 47.6121 32.8404 47.531 32.4741 47.5107H24.9253V52.6816H32.6369Z" fill="white"/>
        <path d="M62.588 60.6303H60.9398L58.0098 55.1554H49.6064L46.6764 60.6303H45.0283L52.9027 45.8682H52.923H53.4114H53.798H54.1846H54.6526H54.6729L62.588 60.6303ZM50.3593 53.6954H57.2366L53.8183 47.2876H53.798L50.3593 53.6954Z" fill="white"/>
        <path d="M73.3112 59.1499H75.5494V60.5896H69.7505V59.1499H71.9887V47.5308H69.7505V46.1113H75.5494V47.5308H73.3112V59.1499Z" fill="white"/>
        <path d="M98.5416 60.6708H97.0563L85.2549 48.1797V60.6708H83.7695V46.0708H85.2549L97.0766 58.5619V46.0708H98.562V60.6708H98.5416Z" fill="white"/>
        <path d="M12.3305 53.3507C12.7375 53.4723 13.1241 53.6346 13.4496 53.8576C13.7955 54.0807 14.0804 54.3443 14.3246 54.6687C14.5687 54.9729 14.7722 55.3176 14.9146 55.7029C15.0571 56.0882 15.1385 56.4734 15.1385 56.8993C15.1385 57.4062 15.0367 57.8929 14.8332 58.339C14.6298 58.7851 14.3449 59.1907 13.999 59.5151C13.6531 59.8598 13.2462 60.1234 12.7782 60.3059C12.3102 60.4884 11.8015 60.5898 11.2725 60.5898H5.77873H5.69735C5.16832 60.5695 4.67999 60.4681 4.23235 60.2856C3.76436 60.1031 3.37776 59.8395 3.03186 59.4948C2.68596 59.1704 2.42144 58.7851 2.21797 58.339C2.0145 57.8929 1.91276 57.4265 1.91276 56.9196H3.41846C3.41846 57.2237 3.4795 57.5076 3.62193 57.7915C3.74401 58.0551 3.92714 58.2984 4.13061 58.5012C4.33408 58.704 4.5986 58.8662 4.88346 58.9879C5.16832 59.1095 5.47353 59.1704 5.79908 59.1704H11.1911V59.1501C11.2114 59.1501 11.2318 59.1501 11.2521 59.1501C11.2521 59.1501 11.2725 59.1501 11.3132 59.1501C11.6387 59.1501 11.9439 59.0893 12.2491 58.9676C12.534 58.8459 12.7985 58.6837 13.002 58.4809C13.2055 58.2782 13.3886 58.0145 13.5107 57.7509C13.6328 57.467 13.7141 57.1832 13.7141 56.8587C13.7141 56.8384 13.7141 56.8182 13.6938 56.7979V56.7573V56.7168V56.6965V56.6762V56.6357V56.6154V56.5951V56.5546C13.6735 56.5343 13.6735 56.5343 13.6735 56.514C13.6735 56.4532 13.6735 56.4329 13.6531 56.4126V56.3721V56.3518C13.6531 56.3315 13.6531 56.3315 13.6328 56.3315C13.6328 56.3315 13.6124 56.3315 13.6124 56.3112V56.2707L13.5921 56.2504V56.2098C13.5921 56.1896 13.5921 56.1896 13.5717 56.1693C13.5717 56.149 13.5717 56.1287 13.5514 56.1287C13.5514 56.1287 13.531 56.1084 13.531 56.0882C13.5107 56.0882 13.5107 56.0882 13.5107 56.0679C13.5107 56.0476 13.5107 56.0476 13.4903 56.0476C13.4903 56.0476 13.47 56.0273 13.47 56.0071C13.4496 56.0071 13.4496 56.0071 13.4496 55.9868V55.9665C13.4293 55.9665 13.4293 55.9665 13.4293 55.9462C13.4089 55.9259 13.4089 55.9259 13.4089 55.9057C13.3886 55.8854 13.3886 55.8854 13.3886 55.8651C13.3682 55.8448 13.3682 55.8246 13.3479 55.8043C13.3275 55.784 13.3275 55.7637 13.3072 55.7434L13.2869 55.7232V55.7029L13.2462 55.6623L13.2258 55.6218L13.2055 55.5812L13.1444 55.5204L13.1037 55.4798C13.1037 55.4596 13.1037 55.4596 13.0834 55.4393L13.0427 55.3987L13.002 55.3582L12.9816 55.3176C12.9613 55.3176 12.9613 55.3176 12.9613 55.3176C12.9613 55.3176 12.9613 55.3176 12.941 55.3176C12.9206 55.2973 12.9206 55.2973 12.9003 55.2771C12.9003 55.2568 12.8799 55.2568 12.8392 55.2365L12.8189 55.2162L12.7782 55.1757C12.7578 55.1757 12.7578 55.1757 12.7578 55.1757C12.7578 55.1757 12.7578 55.1757 12.7375 55.1757L12.6968 55.1351L12.6561 55.1148C12.6357 55.0946 12.595 55.0743 12.5747 55.054L12.534 55.0337C12.534 55.0134 12.5137 55.0134 12.4933 55.0134V54.9526L12.4526 54.9323C12.4323 54.9323 12.4323 54.9323 12.4323 54.9323C12.4323 54.9323 12.4323 54.9323 12.4119 54.9323C12.3916 54.9121 12.3509 54.8918 12.3305 54.8918C12.2695 54.8715 12.2491 54.8512 12.2288 54.8512C12.2085 54.8309 12.2085 54.8309 12.1881 54.8309C12.1678 54.8107 12.1678 54.8107 12.1474 54.8107C12.1271 54.7904 12.1271 54.7904 12.1067 54.7904H12.0864C12.066 54.7701 12.066 54.7701 12.0457 54.7701C12.0253 54.7498 12.005 54.7498 11.9846 54.7498C11.9846 54.7498 11.9643 54.7498 11.9236 54.7296C11.9032 54.7296 11.9032 54.7296 11.8829 54.7296C11.8626 54.7296 11.8626 54.7296 11.8422 54.7296H11.8015V54.7093H11.7608C11.5166 54.6484 11.1097 54.5471 10.5603 54.4457C10.011 54.324 9.40054 54.2226 8.74943 54.1009C8.64769 54.0807 8.52561 54.0604 8.42387 54.0401C8.32214 54.0198 8.20005 53.9996 8.09832 53.9793C7.91519 53.959 7.71172 53.9185 7.52859 53.8779C7.34547 53.8373 7.142 53.7968 6.95887 53.7765C6.93853 53.7765 6.93853 53.7765 6.91818 53.7765C6.91818 53.7765 6.89783 53.7765 6.87748 53.7765C6.81644 53.7765 6.7554 53.7562 6.67401 53.7359H6.61297H6.57228C6.55193 53.7157 6.53158 53.7157 6.51123 53.7157C6.49089 53.7157 6.47054 53.7157 6.45019 53.7157C6.42985 53.7157 6.4095 53.7157 6.38915 53.7157C6.3688 53.7157 6.34846 53.7157 6.32811 53.6954H6.24672C6.10429 53.6751 5.96186 53.6548 5.83978 53.6346C5.71769 53.6143 5.59561 53.594 5.49387 53.5737C5.37179 53.5535 5.24971 53.5332 5.14797 53.5129C5.04623 53.4926 4.96485 53.4926 4.88346 53.4723C4.80207 53.4521 4.74103 53.4521 4.67999 53.4318C4.27304 53.3304 3.88644 53.1682 3.56089 52.9451C3.21499 52.7221 2.93013 52.4585 2.68596 52.134C2.44179 51.8298 2.23832 51.4851 2.09589 51.0998C1.95346 50.7146 1.87207 50.309 1.87207 49.8832C1.87207 49.3762 1.97381 48.9099 2.17728 48.4637C2.38075 48.0176 2.64526 47.6324 2.99117 47.2876C3.33707 46.9632 3.72367 46.6996 4.19165 46.4968C4.65964 46.294 5.14797 46.1926 5.677 46.1724H5.75839H11.2521H11.476C11.9643 46.1926 12.4323 46.3143 12.8596 46.4968C13.2869 46.6793 13.6531 46.9429 13.9787 47.2471C14.3042 47.5512 14.5687 47.896 14.7722 48.3015C14.9757 48.7071 15.0978 49.1329 15.1385 49.579H13.6328C13.5921 49.3154 13.5107 49.0721 13.3682 48.8287C13.2462 48.5854 13.0834 48.3826 12.8799 48.2001C12.6764 48.0176 12.4526 47.8757 12.2085 47.7743C11.9643 47.6729 11.6794 47.6121 11.3946 47.5918H11.3335H11.2521H11.1504H5.86012H5.75839H5.677C5.37179 47.6121 5.06658 47.6729 4.78172 47.7946C4.49686 47.9162 4.25269 48.0785 4.04922 48.2812C3.84575 48.484 3.68297 48.7274 3.56089 49.0112C3.43881 49.2951 3.37776 49.579 3.37776 49.8832V49.944V50.0049V50.0454V50.086V50.1062V50.1468V50.1671L3.39811 50.1874V50.2279V50.2482V50.2887C3.41846 50.309 3.41846 50.309 3.41846 50.3293V50.3698V50.3901L3.43881 50.4104V50.451V50.4712L3.45915 50.4915V50.5321C3.4795 50.5523 3.4795 50.5523 3.4795 50.5726C3.4795 50.5929 3.4795 50.5929 3.49985 50.5929L3.52019 50.6132C3.54054 50.6335 3.54054 50.6537 3.56089 50.674C3.56089 50.6943 3.58124 50.7146 3.60158 50.7348C3.60158 50.7551 3.60158 50.7754 3.62193 50.7957C3.62193 50.816 3.62193 50.816 3.64228 50.8362C3.64228 50.8565 3.64228 50.8565 3.66262 50.8565L3.68297 50.8768L3.70332 50.9173C3.72367 50.9173 3.72367 50.9376 3.72367 50.9579H3.74401C3.74401 50.9782 3.74401 50.9985 3.76436 50.9985V51.0187L3.78471 51.039L3.80506 51.0593V51.0796C3.8254 51.0998 3.8254 51.0998 3.8254 51.1201H3.84575C3.84575 51.1404 3.84575 51.1607 3.8661 51.1607L3.90679 51.2012V51.2215L3.92714 51.2621L3.96783 51.3026L4.04922 51.3837L4.13061 51.4851C4.15096 51.4851 4.15096 51.4851 4.15096 51.4851C4.15096 51.4851 4.15096 51.4851 4.1713 51.4851L4.212 51.5257L4.25269 51.5662L4.29339 51.5865C4.29339 51.6068 4.29339 51.6068 4.31374 51.6068V51.6271C4.33408 51.6271 4.33408 51.6271 4.35443 51.6473L4.37478 51.6676H4.39512C4.39512 51.6879 4.39512 51.6879 4.41547 51.6879L4.43582 51.7082L4.45617 51.7285C4.47651 51.7285 4.47651 51.7285 4.49686 51.7487C4.51721 51.7487 4.51721 51.7487 4.51721 51.7487C4.51721 51.7487 4.51721 51.7487 4.53755 51.7487L4.78172 51.8907C4.80207 51.8907 4.84276 51.911 4.86311 51.9312C4.88346 51.9312 4.9038 51.9312 4.92415 51.9515H4.96485L4.98519 51.9718H5.02589C5.04624 51.9921 5.04623 51.9921 5.06658 51.9921H5.08693C5.08693 52.0123 5.10728 52.0123 5.12762 52.0123C5.14797 52.0123 5.14797 52.0123 5.16832 52.0326H5.18867H5.22936L5.24971 52.0529H5.2904C5.31075 52.0529 5.3311 52.0529 5.35144 52.0732H5.39214C5.41248 52.0732 5.43283 52.0732 5.45318 52.0935H5.51422H5.55491H5.57526C5.59561 52.0935 5.677 52.1137 5.83978 52.134C6.00255 52.1543 6.20603 52.1948 6.47054 52.2354C6.71471 52.276 7.01991 52.3165 7.36582 52.3773C7.71172 52.4382 8.05762 52.499 8.42387 52.5598C8.5663 52.5801 8.64769 52.6004 8.70873 52.6207C9.35984 52.7221 10.0313 52.8437 10.6824 52.9857C11.3335 53.1276 11.8625 53.2087 12.3305 53.3507Z" stroke="white" stroke-width="2" stroke-miterlimit="10"/>
        <path d="M31.2126 54.0807H24.9049V60.6304H23.3789V46.0913H32.6776C33.227 46.1319 33.7356 46.2535 34.224 46.4969C34.7123 46.7199 35.1396 47.0241 35.4855 47.3891C35.8314 47.7541 36.1163 48.1596 36.3401 48.626C36.5435 49.0924 36.6656 49.5791 36.6656 50.086C36.6656 50.593 36.5639 51.0594 36.3808 51.5257C36.1976 51.9921 35.9128 52.3774 35.5872 52.7424C35.2413 53.0871 34.8547 53.3913 34.3867 53.6346C33.9188 53.878 33.4304 54.0199 32.9014 54.101H31.2126V54.0807ZM32.6369 52.6816C32.9828 52.641 33.3083 52.5396 33.6135 52.3977C33.9188 52.2355 34.1833 52.053 34.4071 51.8299C34.6309 51.6069 34.7937 51.3432 34.9361 51.0391C35.0582 50.7349 35.1396 50.4307 35.1396 50.086C35.1396 49.7413 35.0785 49.4169 34.9361 49.1127C34.7937 48.8085 34.6106 48.5449 34.3664 48.3016C34.1222 48.0785 33.8374 47.8757 33.5118 47.7541C33.1863 47.6121 32.8404 47.531 32.4741 47.5107H24.9253V52.6816H32.6369V52.6816Z" stroke="white" stroke-width="2" stroke-miterlimit="10"/>
        <path d="M62.588 60.6303H60.9398L58.0098 55.1554H49.6064L46.6764 60.6303H45.0283L52.9027 45.8682H52.923H53.4114H53.798H54.1846H54.6526H54.6729L62.588 60.6303ZM50.3593 53.6954H57.2366L53.8183 47.2876H53.798L50.3593 53.6954Z" stroke="white" stroke-width="2" stroke-miterlimit="10"/>
        <path d="M73.3112 59.1499H75.5494V60.5896H69.7505V59.1499H71.9887V47.5308H69.7505V46.1113H75.5494V47.5308H73.3112V59.1499Z" stroke="white" stroke-width="2" stroke-miterlimit="10"/>
        <path d="M98.5416 60.6708H97.0563L85.2549 48.1797V60.6708H83.7695V46.0708H85.2549L97.0766 58.5619V46.0708H98.562V60.6708H98.5416Z" stroke="white" stroke-width="2" stroke-miterlimit="10"/>
        <path d="M13.2255 84.5785H11.7401V77.8057H1.89208V84.5785H0.406738V69.9785H1.89208V76.366H11.7605V69.9785H13.2255V84.5785Z" fill="white"/>
        <path d="M29.5641 69.9988C30.6222 69.9988 31.5988 70.1813 32.5348 70.5666C33.4708 70.9518 34.2847 71.4791 34.9561 72.1279C35.6479 72.7768 36.1973 73.5474 36.6043 74.4396C37.0112 75.3115 37.2147 76.2646 37.2147 77.2785C37.2147 78.2924 37.0112 79.2251 36.6043 80.1174C36.1973 80.9893 35.6479 81.7599 34.9561 82.429C34.2643 83.0779 33.4504 83.6051 32.5348 83.9904C31.5988 84.3757 30.6222 84.5582 29.5641 84.5582C28.5061 84.5582 27.5294 84.3757 26.5934 83.9904C25.6778 83.6051 24.8639 83.0779 24.1721 82.429C23.4803 81.7801 22.9309 81.0096 22.524 80.1174C22.117 79.2454 21.9136 78.2924 21.9136 77.2785C21.9136 76.2646 22.117 75.3318 22.524 74.4396C22.9309 73.5677 23.4803 72.7971 24.1721 72.1279C24.8639 71.4791 25.6778 70.9518 26.5934 70.5666C27.5294 70.2016 28.5264 69.9988 29.5641 69.9988ZM29.5641 83.2199C30.4187 83.2199 31.2326 83.0576 31.9854 82.7535C32.7383 82.4493 33.4097 82.0235 33.9591 81.476C34.5288 80.9488 34.9561 80.3201 35.302 79.5901C35.6276 78.8601 35.7904 78.0896 35.7904 77.2785C35.7904 76.4674 35.6276 75.6968 35.302 74.9668C34.9765 74.2368 34.5288 73.6285 33.9591 73.081C33.3894 72.5538 32.7383 72.1279 31.9854 71.8035C31.2326 71.4993 30.4187 71.3371 29.5641 71.3371C28.7095 71.3371 27.8957 71.4993 27.1428 71.8035C26.39 72.1077 25.7388 72.5335 25.1691 73.081C24.5994 73.6082 24.1721 74.2368 23.8262 74.9668C23.4803 75.6968 23.3379 76.4471 23.3379 77.2785C23.3379 78.0896 23.5007 78.8601 23.8262 79.5901C24.1518 80.3201 24.5994 80.9488 25.1691 81.476C25.7388 82.0032 26.39 82.429 27.1428 82.7535C27.8957 83.0576 28.7095 83.2199 29.5641 83.2199Z" fill="white"/>
        <path d="M58.905 69.9988V78.2924C58.905 79.144 58.7219 79.9551 58.376 80.7257C58.0301 81.4963 57.5621 82.1451 56.9517 82.7129C56.3413 83.2807 55.6495 83.7268 54.8356 84.0512C54.0217 84.3757 53.1671 84.5379 52.2515 84.5379C51.3155 84.5379 50.461 84.3757 49.6471 84.0512C48.8332 83.7268 48.1414 83.2807 47.531 82.7129C46.9206 82.1451 46.4526 81.476 46.1067 80.7257C45.7608 79.9551 45.5776 79.144 45.5776 78.2924V69.9988H47.0426V77.826C47.063 77.9071 47.063 77.9882 47.063 78.0693C47.063 78.1504 47.063 78.2315 47.063 78.3127C47.0833 78.9818 47.2258 79.6104 47.4903 80.2188C47.7548 80.8068 48.121 81.3138 48.589 81.7599C49.057 82.206 49.6064 82.5507 50.2168 82.794C50.8476 83.0576 51.519 83.1793 52.2312 83.1793C52.9433 83.1793 53.6148 83.0576 54.2455 82.794C54.8763 82.5304 55.4257 82.1857 55.914 81.7599C56.4023 81.334 56.7482 80.8068 57.0331 80.2188C57.2976 79.6307 57.44 79.0021 57.44 78.3127V77.9679V77.826V69.9988H58.905Z" fill="white"/>
        <path d="M77.7058 77.2784C78.1128 77.4001 78.4994 77.5623 78.8249 77.7854C79.1708 78.0084 79.4557 78.272 79.6999 78.5965C79.944 78.9006 80.1475 79.2454 80.2899 79.6306C80.4324 80.0159 80.5138 80.4012 80.5138 80.827C80.5138 81.334 80.412 81.8206 80.2086 82.2667C80.0051 82.7128 79.7202 83.1184 79.3743 83.4428C79.0284 83.7876 78.6215 84.0512 78.1535 84.2337C77.6855 84.4162 77.1768 84.5176 76.6478 84.5176H71.1541H71.0727C70.5436 84.4973 70.0553 84.3959 69.6077 84.2134C69.1397 84.0309 68.7531 83.7673 68.4072 83.4226C68.0613 83.0981 67.7968 82.7128 67.5933 82.2667C67.3898 81.8206 67.2881 81.3542 67.2881 80.8473H68.7938C68.7938 81.1515 68.8548 81.4353 68.9972 81.7192C69.1193 81.9828 69.3025 82.2262 69.5059 82.429C69.7094 82.6317 69.9739 82.794 70.2588 82.9156C70.5436 83.0373 70.8488 83.0981 71.1744 83.0981H76.5664V83.0778C76.5868 83.0778 76.6071 83.0778 76.6274 83.0778C76.6274 83.0778 76.6478 83.0778 76.6885 83.0778C77.014 83.0778 77.3193 83.017 77.6245 82.8953C77.9093 82.7737 78.1738 82.6115 78.3773 82.4087C78.5808 82.2059 78.7639 81.9423 78.886 81.6787C79.0081 81.3948 79.0895 81.1109 79.0895 80.7865C79.0895 80.7662 79.0895 80.7459 79.0691 80.7256V80.6851V80.6445V80.6242V80.604V80.5634V80.5431V80.5229V80.4823C79.0488 80.462 79.0488 80.462 79.0488 80.4417C79.0488 80.3809 79.0488 80.3606 79.0284 80.3404V80.2998V80.2795C79.0284 80.2592 79.0284 80.2592 79.0081 80.2592C79.0081 80.2592 79.0081 80.2592 79.0081 80.239V80.1984L78.9877 80.1781V80.1376C78.9877 80.1173 78.9877 80.1173 78.9674 80.097C78.9674 80.0767 78.9674 80.0565 78.9674 80.0565C78.9674 80.0565 78.9674 80.0362 78.9674 80.0159C78.947 80.0159 78.947 80.0159 78.947 79.9956C78.947 79.9754 78.947 79.9754 78.9267 79.9754C78.9267 79.9754 78.9267 79.9551 78.9267 79.9348C78.9063 79.9348 78.9063 79.9348 78.9063 79.9145V79.8942C78.886 79.874 78.886 79.874 78.886 79.8537C78.8656 79.8334 78.8656 79.8334 78.8656 79.8131C78.8453 79.7929 78.8453 79.7929 78.8453 79.7726C78.8249 79.7523 78.8249 79.732 78.8046 79.7117C78.7843 79.6915 78.7843 79.6712 78.7639 79.6509L78.7436 79.6306V79.6104L78.7029 79.5698L78.6825 79.5292L78.6622 79.4887L78.6011 79.4279L78.5604 79.3873C78.5604 79.367 78.5604 79.367 78.5401 79.3467L78.4994 79.3062L78.4587 79.2656L78.4383 79.2251C78.418 79.2251 78.418 79.2251 78.418 79.2251C78.418 79.2251 78.418 79.2251 78.3977 79.2251C78.3773 79.2048 78.3773 79.2048 78.357 79.1845C78.357 79.1642 78.3366 79.1642 78.2959 79.144L78.2756 79.1237L78.2349 79.0831C78.2145 79.0831 78.2145 79.0831 78.2145 79.0831C78.2145 79.0831 78.2145 79.0831 78.1942 79.0831L78.1535 79.0426L78.1128 79.0223C78.0924 79.002 78.0518 78.9817 78.0314 78.9615L77.9907 78.9412C77.9907 78.9209 77.9704 78.9209 77.95 78.9209V78.8804L77.9093 78.8601C77.889 78.8601 77.889 78.8601 77.889 78.8601C77.889 78.8601 77.889 78.8601 77.8686 78.8601C77.8483 78.8398 77.8076 78.8195 77.7872 78.8195C77.7262 78.7992 77.7058 78.779 77.6855 78.779C77.6652 78.7587 77.6652 78.7587 77.6448 78.7587C77.6245 78.7384 77.6245 78.7384 77.6041 78.7384C77.5838 78.7181 77.5838 78.7181 77.5634 78.7181H77.5431C77.5227 78.6979 77.5227 78.6979 77.5024 78.6979C77.482 78.6776 77.4617 78.6776 77.4413 78.6776C77.4413 78.6776 77.421 78.6776 77.3803 78.6573C77.3599 78.6573 77.36 78.6573 77.3396 78.6573C77.3193 78.6573 77.3193 78.6573 77.2989 78.6573H77.2379V78.637H77.1972C76.953 78.5762 76.5461 78.4748 75.9967 78.3734C75.4473 78.2517 74.8369 78.1504 74.1858 78.0287C74.0841 78.0084 73.962 77.9881 73.8602 77.9679C73.7585 77.9476 73.6364 77.9273 73.5347 77.907C73.3515 77.8867 73.1481 77.8462 72.965 77.8056C72.7818 77.7651 72.5784 77.7245 72.3952 77.7042C72.3749 77.7042 72.3749 77.7042 72.3545 77.7042C72.3545 77.7042 72.3342 77.7042 72.3138 77.7042C72.2528 77.7042 72.1918 77.684 72.1104 77.6637H72.0493H72.0086C71.9883 77.6434 71.9679 77.6434 71.9476 77.6434C71.9272 77.6434 71.9069 77.6434 71.8865 77.6434C71.8662 77.6434 71.8459 77.6434 71.8255 77.6434C71.8052 77.6434 71.7848 77.6434 71.7645 77.6231H71.6831C71.5406 77.6029 71.3982 77.5826 71.2761 77.5623C71.154 77.542 71.032 77.5217 70.9302 77.5015C70.8082 77.4812 70.6861 77.4609 70.5843 77.4406C70.4826 77.4204 70.4012 77.4204 70.3198 77.4001C70.2384 77.3798 70.1774 77.3798 70.1163 77.3595C69.7094 77.2581 69.3228 77.0959 68.9972 76.8729C68.6513 76.6498 68.3665 76.3862 68.1223 76.0618C67.8781 75.7576 67.6747 75.4129 67.5322 75.0276C67.3898 74.6423 67.3084 74.2368 67.3084 73.8109C67.3084 73.304 67.4102 72.8376 67.6136 72.3915C67.8171 71.9454 68.0816 71.5601 68.4275 71.2154C68.7734 70.8909 69.16 70.6273 69.628 70.4245C70.096 70.2218 70.5843 70.1204 71.1134 70.1001H71.1947H76.6885H76.9123C77.4006 70.1204 77.8686 70.242 78.2959 70.4245C78.7232 70.607 79.0895 70.8706 79.415 71.1748C79.7406 71.479 80.0051 71.8237 80.2086 72.2293C80.412 72.6348 80.5341 73.0606 80.5748 73.5068H79.0691C79.0284 73.2431 78.947 72.9998 78.8046 72.7565C78.6825 72.5131 78.5197 72.3104 78.3163 72.1279C78.1128 71.9454 77.889 71.8034 77.6448 71.702C77.4006 71.6006 77.1158 71.5398 76.8309 71.5195H76.7699H76.6885H76.5868H71.2965H71.1947H71.1134C70.8081 71.5398 70.5029 71.6007 70.2181 71.7223C69.9332 71.844 69.6891 72.0062 69.4856 72.209C69.2821 72.4118 69.1193 72.6551 68.9972 72.939C68.8752 73.2229 68.8141 73.5068 68.8141 73.8109V73.8718V73.9326V73.9731V74.0137V74.034V74.0745V74.0948L68.8345 74.1151V74.1556V74.1759V74.2165C68.8548 74.2368 68.8548 74.2368 68.8548 74.257V74.2976V74.3179L68.8752 74.3381V74.3787V74.399L68.8955 74.4193V74.4598C68.9159 74.4801 68.9159 74.4801 68.9159 74.5004C68.9159 74.5206 68.9159 74.5206 68.9159 74.5206L68.9362 74.5409C68.9566 74.5612 68.9566 74.5815 68.9769 74.6018C68.9769 74.622 68.9973 74.6423 69.0176 74.6626C69.0176 74.6829 69.0176 74.7031 69.0379 74.7234C69.0379 74.7437 69.0379 74.7437 69.0583 74.764C69.0583 74.7843 69.0583 74.7842 69.0786 74.7842L69.099 74.8045L69.1193 74.8451C69.1397 74.8451 69.1397 74.8654 69.1397 74.8856H69.16C69.16 74.9059 69.16 74.9262 69.1804 74.9262V74.9465L69.2007 74.9668L69.2211 74.987V75.0073C69.2414 75.0276 69.2414 75.0276 69.2414 75.0479H69.2618C69.2618 75.0681 69.2618 75.0884 69.2821 75.0884L69.3228 75.129V75.1493L69.3431 75.1898L69.3838 75.2304L69.4652 75.3115L69.5466 75.4129C69.567 75.4129 69.567 75.4129 69.567 75.4129C69.567 75.4129 69.567 75.4129 69.5873 75.4129L69.628 75.4534L69.6687 75.494L69.7094 75.5142C69.7094 75.5345 69.7094 75.5345 69.7298 75.5345V75.5548C69.7501 75.5548 69.7501 75.5548 69.7704 75.5751L69.7908 75.5954H69.8111C69.8111 75.6156 69.8111 75.6156 69.8315 75.6156L69.8518 75.6359L69.8722 75.6562C69.8925 75.6562 69.8925 75.6562 69.9129 75.6765C69.9332 75.6765 69.9332 75.6765 69.9332 75.6765C69.9332 75.6765 69.9332 75.6765 69.9536 75.6765L70.1977 75.8184C70.2181 75.8184 70.2588 75.8387 70.2791 75.859C70.2995 75.859 70.3198 75.859 70.3402 75.8793H70.3809L70.4012 75.8995H70.4419C70.4622 75.9198 70.4622 75.9198 70.4826 75.9198H70.5029C70.5029 75.9401 70.5233 75.9401 70.5436 75.9401C70.564 75.9401 70.564 75.9401 70.5843 75.9604H70.6047H70.6454L70.6657 75.9806H70.7064C70.7268 75.9806 70.7471 75.9806 70.7675 76.0009H70.8081C70.8285 76.0009 70.8488 76.0009 70.8692 76.0212H70.9302H70.9709H70.9913C71.0116 76.0212 71.093 76.0415 71.2558 76.0618C71.4186 76.082 71.622 76.1226 71.8865 76.1631C72.1307 76.2037 72.4359 76.2442 72.7818 76.3051C73.1277 76.3659 73.4736 76.4268 73.8399 76.4876C73.9823 76.5079 74.0637 76.5281 74.1247 76.5484C74.7759 76.6498 75.4473 76.7715 76.0984 76.9134C76.6885 76.9945 77.2379 77.1365 77.7058 77.2784Z" fill="white"/>
        <path d="M100.434 84.5785H88.7544V69.9988H100.434V71.4182H90.2194V76.3863H100.434V77.8057H90.2194V83.1793H100.434V84.5785Z" fill="white"/>
        <path d="M13.2255 84.5785H11.7401V77.8057H1.89208V84.5785H0.406738V69.9785H1.89208V76.366H11.7605V69.9785H13.2255V84.5785Z" stroke="white" stroke-width="2" stroke-miterlimit="10"/>
        <path d="M29.5641 69.9988C30.6222 69.9988 31.5988 70.1813 32.5348 70.5666C33.4708 70.9518 34.2847 71.4791 34.9561 72.1279C35.6479 72.7768 36.1973 73.5474 36.6043 74.4396C37.0112 75.3115 37.2147 76.2646 37.2147 77.2785C37.2147 78.2924 37.0112 79.2251 36.6043 80.1174C36.1973 80.9893 35.6479 81.7599 34.9561 82.429C34.2643 83.0779 33.4504 83.6051 32.5348 83.9904C31.5988 84.3757 30.6222 84.5582 29.5641 84.5582C28.5061 84.5582 27.5294 84.3757 26.5934 83.9904C25.6778 83.6051 24.8639 83.0779 24.1721 82.429C23.4803 81.7801 22.9309 81.0096 22.524 80.1174C22.117 79.2454 21.9136 78.2924 21.9136 77.2785C21.9136 76.2646 22.117 75.3318 22.524 74.4396C22.9309 73.5677 23.4803 72.7971 24.1721 72.1279C24.8639 71.4791 25.6778 70.9518 26.5934 70.5666C27.5294 70.2016 28.5264 69.9988 29.5641 69.9988ZM29.5641 83.2199C30.4187 83.2199 31.2326 83.0576 31.9854 82.7535C32.7383 82.4493 33.4097 82.0235 33.9591 81.476C34.5288 80.9488 34.9561 80.3201 35.302 79.5901C35.6276 78.8601 35.7904 78.0896 35.7904 77.2785C35.7904 76.4674 35.6276 75.6968 35.302 74.9668C34.9765 74.2368 34.5288 73.6285 33.9591 73.081C33.3894 72.5538 32.7383 72.1279 31.9854 71.8035C31.2326 71.4993 30.4187 71.3371 29.5641 71.3371C28.7095 71.3371 27.8957 71.4993 27.1428 71.8035C26.39 72.1077 25.7388 72.5335 25.1691 73.081C24.5994 73.6082 24.1721 74.2368 23.8262 74.9668C23.4803 75.6968 23.3379 76.4471 23.3379 77.2785C23.3379 78.0896 23.5007 78.8601 23.8262 79.5901C24.1518 80.3201 24.5994 80.9488 25.1691 81.476C25.7388 82.0032 26.39 82.429 27.1428 82.7535C27.8957 83.0576 28.7095 83.2199 29.5641 83.2199Z" stroke="white" stroke-width="2" stroke-miterlimit="10"/>
        <path d="M58.905 69.9988V78.2924C58.905 79.144 58.7219 79.9551 58.376 80.7257C58.0301 81.4963 57.5621 82.1451 56.9517 82.7129C56.3413 83.2807 55.6495 83.7268 54.8356 84.0512C54.0217 84.3757 53.1671 84.5379 52.2515 84.5379C51.3155 84.5379 50.461 84.3757 49.6471 84.0512C48.8332 83.7268 48.1414 83.2807 47.531 82.7129C46.9206 82.1451 46.4526 81.476 46.1067 80.7257C45.7608 79.9551 45.5776 79.144 45.5776 78.2924V69.9988H47.0426V77.826C47.063 77.9071 47.063 77.9882 47.063 78.0693C47.063 78.1504 47.063 78.2315 47.063 78.3127C47.0833 78.9818 47.2258 79.6104 47.4903 80.2188C47.7548 80.8068 48.121 81.3138 48.589 81.7599C49.057 82.206 49.6064 82.5507 50.2168 82.794C50.8476 83.0576 51.519 83.1793 52.2312 83.1793C52.9433 83.1793 53.6148 83.0576 54.2455 82.794C54.8763 82.5304 55.4257 82.1857 55.914 81.7599C56.4023 81.334 56.7482 80.8068 57.0331 80.2188C57.2976 79.6307 57.44 79.0021 57.44 78.3127V77.9679V77.826V69.9988H58.905Z" stroke="white" stroke-width="2" stroke-miterlimit="10"/>
        <path d="M77.7058 77.2784C78.1128 77.4001 78.4994 77.5623 78.8249 77.7854C79.1708 78.0084 79.4557 78.272 79.6999 78.5965C79.944 78.9006 80.1475 79.2454 80.2899 79.6306C80.4324 80.0159 80.5138 80.4012 80.5138 80.827C80.5138 81.334 80.412 81.8206 80.2086 82.2667C80.0051 82.7128 79.7202 83.1184 79.3743 83.4428C79.0284 83.7876 78.6215 84.0512 78.1535 84.2337C77.6855 84.4162 77.1768 84.5176 76.6478 84.5176H71.1541H71.0727C70.5436 84.4973 70.0553 84.3959 69.6077 84.2134C69.1397 84.0309 68.7531 83.7673 68.4072 83.4226C68.0613 83.0981 67.7968 82.7128 67.5933 82.2667C67.3898 81.8206 67.2881 81.3542 67.2881 80.8473H68.7938C68.7938 81.1515 68.8548 81.4353 68.9972 81.7192C69.1193 81.9828 69.3025 82.2262 69.5059 82.429C69.7094 82.6317 69.9739 82.794 70.2588 82.9156C70.5436 83.0373 70.8488 83.0981 71.1744 83.0981H76.5664V83.0778C76.5868 83.0778 76.6071 83.0778 76.6275 83.0778C76.6275 83.0778 76.6478 83.0778 76.6885 83.0778C77.014 83.0778 77.3193 83.017 77.6245 82.8953C77.9093 82.7737 78.1738 82.6115 78.3773 82.4087C78.5808 82.2059 78.7639 81.9423 78.886 81.6787C79.0081 81.3948 79.0895 81.1109 79.0895 80.7865C79.0895 80.7662 79.0895 80.7459 79.0691 80.7256V80.6851V80.6445V80.6242V80.604V80.5634V80.5431V80.5229V80.4823C79.0488 80.462 79.0488 80.462 79.0488 80.4417C79.0488 80.3809 79.0488 80.3606 79.0284 80.3404V80.2998V80.2795C79.0284 80.2592 79.0284 80.2592 79.0081 80.2592C79.0081 80.2592 79.0081 80.2592 79.0081 80.239V80.1984L78.9877 80.1781V80.1376C78.9877 80.1173 78.9877 80.1173 78.9674 80.097C78.9674 80.0767 78.9674 80.0565 78.9674 80.0565C78.9674 80.0565 78.9674 80.0362 78.9674 80.0159C78.947 80.0159 78.947 80.0159 78.947 79.9956C78.947 79.9754 78.947 79.9754 78.9267 79.9754C78.9267 79.9754 78.9267 79.9551 78.9267 79.9348C78.9063 79.9348 78.9063 79.9348 78.9063 79.9145V79.8942C78.886 79.874 78.886 79.874 78.886 79.8537C78.8656 79.8334 78.8656 79.8334 78.8656 79.8131C78.8453 79.7929 78.8453 79.7929 78.8453 79.7726C78.8249 79.7523 78.8249 79.732 78.8046 79.7117C78.7843 79.6915 78.7843 79.6712 78.7639 79.6509L78.7436 79.6306V79.6104L78.7029 79.5698L78.6825 79.5292L78.6622 79.4887L78.6011 79.4279L78.5604 79.3873C78.5604 79.367 78.5604 79.367 78.5401 79.3467L78.4994 79.3062L78.4587 79.2656L78.4384 79.2251C78.418 79.2251 78.418 79.2251 78.418 79.2251C78.418 79.2251 78.418 79.2251 78.3977 79.2251C78.3773 79.2048 78.3773 79.2048 78.357 79.1845C78.357 79.1642 78.3366 79.1642 78.2959 79.144L78.2756 79.1237L78.2349 79.0831C78.2145 79.0831 78.2145 79.0831 78.2145 79.0831C78.2145 79.0831 78.2145 79.0831 78.1942 79.0831L78.1535 79.0426L78.1128 79.0223C78.0924 79.002 78.0518 78.9817 78.0314 78.9615L77.9907 78.9412C77.9907 78.9209 77.9704 78.9209 77.95 78.9209V78.8804L77.9093 78.8601C77.889 78.8601 77.889 78.8601 77.889 78.8601C77.889 78.8601 77.889 78.8601 77.8686 78.8601C77.8483 78.8398 77.8076 78.8195 77.7872 78.8195C77.7262 78.7992 77.7058 78.779 77.6855 78.779C77.6652 78.7587 77.6652 78.7587 77.6448 78.7587C77.6245 78.7384 77.6245 78.7384 77.6041 78.7384C77.5838 78.7181 77.5838 78.7181 77.5634 78.7181H77.5431C77.5227 78.6979 77.5227 78.6979 77.5024 78.6979C77.482 78.6776 77.4617 78.6776 77.4413 78.6776C77.4413 78.6776 77.421 78.6776 77.3803 78.6573C77.3599 78.6573 77.3599 78.6573 77.3396 78.6573C77.3193 78.6573 77.3193 78.6573 77.2989 78.6573H77.2379V78.637H77.1972C76.953 78.5762 76.5461 78.4748 75.9967 78.3734C75.4473 78.2517 74.8369 78.1504 74.1858 78.0287C74.0841 78.0084 73.962 77.9881 73.8602 77.9679C73.7585 77.9476 73.6364 77.9273 73.5347 77.907C73.3515 77.8867 73.1481 77.8462 72.965 77.8056C72.7818 77.7651 72.5784 77.7245 72.3952 77.7042C72.3749 77.7042 72.3749 77.7042 72.3545 77.7042C72.3545 77.7042 72.3342 77.7042 72.3138 77.7042C72.2528 77.7042 72.1918 77.684 72.1104 77.6637H72.0493H72.0086C71.9883 77.6434 71.9679 77.6434 71.9476 77.6434C71.9272 77.6434 71.9069 77.6434 71.8865 77.6434C71.8662 77.6434 71.8459 77.6434 71.8255 77.6434C71.8052 77.6434 71.7848 77.6434 71.7645 77.6231H71.6831C71.5406 77.6029 71.3982 77.5826 71.2761 77.5623C71.154 77.542 71.032 77.5217 70.9302 77.5015C70.8082 77.4812 70.6861 77.4609 70.5843 77.4406C70.4826 77.4204 70.4012 77.4204 70.3198 77.4001C70.2384 77.3798 70.1774 77.3798 70.1163 77.3595C69.7094 77.2581 69.3228 77.0959 68.9972 76.8729C68.6513 76.6498 68.3665 76.3862 68.1223 76.0618C67.8781 75.7576 67.6747 75.4129 67.5322 75.0276C67.3898 74.6423 67.3084 74.2368 67.3084 73.8109C67.3084 73.304 67.4102 72.8376 67.6136 72.3915C67.8171 71.9454 68.0816 71.5601 68.4275 71.2154C68.7734 70.8909 69.16 70.6273 69.628 70.4245C70.096 70.2218 70.5843 70.1204 71.1134 70.1001H71.1947H76.6885H76.9123C77.4006 70.1204 77.8686 70.242 78.2959 70.4245C78.7232 70.607 79.0895 70.8706 79.415 71.1748C79.7406 71.479 80.0051 71.8237 80.2086 72.2293C80.412 72.6348 80.5341 73.0606 80.5748 73.5068H79.0691C79.0284 73.2431 78.947 72.9998 78.8046 72.7565C78.6825 72.5131 78.5197 72.3104 78.3163 72.1279C78.1128 71.9454 77.889 71.8034 77.6448 71.702C77.4006 71.6006 77.1158 71.5398 76.8309 71.5195H76.7699H76.6885H76.5868H71.2965H71.1947H71.1134C70.8081 71.5398 70.5029 71.6007 70.2181 71.7223C69.9332 71.844 69.6891 72.0062 69.4856 72.209C69.2821 72.4118 69.1193 72.6551 68.9972 72.939C68.8752 73.2229 68.8141 73.5068 68.8141 73.8109V73.8718V73.9326V73.9731V74.0137V74.034V74.0745V74.0948L68.8345 74.1151V74.1556V74.1759V74.2165C68.8548 74.2368 68.8548 74.2368 68.8548 74.257V74.2976V74.3179L68.8752 74.3381V74.3787V74.399L68.8955 74.4193V74.4598C68.9159 74.4801 68.9159 74.4801 68.9159 74.5004C68.9159 74.5206 68.9159 74.5206 68.9159 74.5206L68.9362 74.5409C68.9566 74.5612 68.9566 74.5815 68.9769 74.6018C68.9769 74.622 68.9973 74.6423 69.0176 74.6626C69.0176 74.6829 69.0176 74.7031 69.0379 74.7234C69.0379 74.7437 69.0379 74.7437 69.0583 74.764C69.0583 74.7843 69.0583 74.7842 69.0786 74.7842L69.099 74.8045L69.1193 74.8451C69.1397 74.8451 69.1397 74.8654 69.1397 74.8856H69.16C69.16 74.9059 69.16 74.9262 69.1804 74.9262V74.9465L69.2007 74.9668L69.2211 74.987V75.0073C69.2414 75.0276 69.2414 75.0276 69.2414 75.0479H69.2618C69.2618 75.0681 69.2618 75.0884 69.2821 75.0884L69.3228 75.129V75.1493L69.3431 75.1898L69.3838 75.2304L69.4652 75.3115L69.5466 75.4129C69.567 75.4129 69.567 75.4129 69.567 75.4129C69.567 75.4129 69.567 75.4129 69.5873 75.4129L69.628 75.4534L69.6687 75.494L69.7094 75.5142C69.7094 75.5345 69.7094 75.5345 69.7298 75.5345V75.5548C69.7501 75.5548 69.7501 75.5548 69.7704 75.5751L69.7908 75.5954H69.8111C69.8111 75.6156 69.8111 75.6156 69.8315 75.6156L69.8518 75.6359L69.8722 75.6562C69.8925 75.6562 69.8925 75.6562 69.9129 75.6765C69.9332 75.6765 69.9332 75.6765 69.9332 75.6765C69.9332 75.6765 69.9332 75.6765 69.9536 75.6765L70.1977 75.8184C70.2181 75.8184 70.2588 75.8387 70.2791 75.859C70.2995 75.859 70.3198 75.859 70.3402 75.8793H70.3809L70.4012 75.8995H70.4419C70.4622 75.9198 70.4622 75.9198 70.4826 75.9198H70.5029C70.5029 75.9401 70.5233 75.9401 70.5436 75.9401C70.564 75.9401 70.564 75.9401 70.5843 75.9604H70.6047H70.6454L70.6657 75.9806H70.7064C70.7268 75.9806 70.7471 75.9806 70.7675 76.0009H70.8081C70.8285 76.0009 70.8488 76.0009 70.8692 76.0212H70.9302H70.9709H70.9913C71.0116 76.0212 71.093 76.0415 71.2558 76.0618C71.4186 76.082 71.622 76.1226 71.8865 76.1631C72.1307 76.2037 72.4359 76.2442 72.7818 76.3051C73.1277 76.3659 73.4736 76.4268 73.8399 76.4876C73.9823 76.5079 74.0637 76.5281 74.1247 76.5484C74.7759 76.6498 75.4473 76.7715 76.0984 76.9134C76.6885 76.9945 77.2379 77.1365 77.7058 77.2784Z" stroke="white" stroke-width="2" stroke-miterlimit="10"/>
        <path d="M100.434 84.5785H88.7544V69.9988H100.434V71.4182H90.2194V76.3863H100.434V77.8057H90.2194V83.1793H100.434V84.5785Z" stroke="white" stroke-width="2" stroke-miterlimit="10"/>
        <path d="M99.1927 64.9292H1.11914V65.9431H99.1927V64.9292Z" fill="white"/>
    </g>
    <defs>
        <clipPath id="clip0_265_543">
            <rect width="109" height="92" fill="white"/>
        </clipPath>
    </defs>
</svg>
