<svg width="28" height="29" viewBox="0 0 28 29" fill="none" xmlns="http://www.w3.org/2000/svg">
    <path d="M14 9.44186C10.8336 9.44186 9.11628 12.1395 9.11628 14.5566C9.11628 17.5349 11.7209 19.5581 14 19.5581C16.9302 19.5581 18.8837 16.8605 18.8837 14.5566C18.8837 12.1395 17.1664 9.44186 14 9.44186ZM14 9.44186C10.8336 9.44186 9.11628 12.1395 9.11628 14.5566C9.11628 17.5349 11.7209 19.5581 14 19.5581C16.9302 19.5581 18.8837 16.8605 18.8837 14.5566C18.8837 12.1395 17.1664 9.44186 14 9.44186ZM23.8984 0H4.10156C1.8375 0 0 1.90312 0 4.24805V24.752C0 27.0969 1.8375 29 4.10156 29H23.8984C26.1625 29 28 27.0969 28 24.752V4.24805C28 1.90312 26.1625 0 23.8984 0ZM14 22.593C9.9313 22.593 6.18605 18.7706 6.18605 14.5566C6.18605 10.3425 9.9313 6.40698 14 6.40698C18.0687 6.40698 21.814 10.3425 21.814 14.5566C21.814 18.7706 18.0687 22.593 14 22.593ZM23.0234 6.91016C22.1211 6.91016 21.3828 6.14551 21.3828 5.21094C21.3828 4.27637 22.1211 3.51172 23.0234 3.51172C23.9258 3.51172 24.6641 4.27637 24.6641 5.21094C24.6641 6.14551 23.9258 6.91016 23.0234 6.91016ZM14 9.44186C10.8336 9.44186 9.11628 12.1395 9.11628 14.5566C9.11628 17.5349 11.7209 19.5581 14 19.5581C16.9302 19.5581 18.8837 16.8605 18.8837 14.5566C18.8837 12.1395 17.1664 9.44186 14 9.44186ZM14 9.44186C10.8336 9.44186 9.11628 12.1395 9.11628 14.5566C9.11628 17.5349 11.7209 19.5581 14 19.5581C16.9302 19.5581 18.8837 16.8605 18.8837 14.5566C18.8837 12.1395 17.1664 9.44186 14 9.44186ZM14 9.44186C10.8336 9.44186 9.11628 12.1395 9.11628 14.5566C9.11628 17.5349 11.7209 19.5581 14 19.5581C16.9302 19.5581 18.8837 16.8605 18.8837 14.5566C18.8837 12.1395 17.1664 9.44186 14 9.44186Z" fill="white"/>
</svg>
