<svg width="17" height="16" viewBox="0 0 17 16" fill="none" xmlns="http://www.w3.org/2000/svg">
    <g clip-path="url(#clip0_265_249)">
        <path d="M4.91944 9.29136L13.4801 15.2385C13.8318 15.4834 14.1982 15.6134 14.5124 15.6149C15.2023 15.6181 15.6624 15.0416 15.6667 14.1105L15.7244 1.68983C15.7265 1.23497 15.596 0.85432 15.4011 0.588876C15.2033 0.31979 14.8925 0.17644 14.556 0.174877C14.2419 0.173418 13.8888 0.300417 13.5349 0.541664L4.9272 6.409C4.37384 6.78659 4.06901 7.29686 4.06659 7.84645C4.06403 8.39579 4.36886 8.90889 4.91944 9.29136Z" fill="#808080"/>
        <path d="M1.81521 0.119289L1.82619 0.119421C1.82798 0.119429 1.82975 0.119356 1.83154 0.119365L1.81521 0.119289Z" fill="#808080"/>
        <path d="M1.77134 15.5633L2.12635 15.5639C2.59123 15.5661 2.99542 15.1891 2.99758 14.7236L3.06144 0.978604C3.0636 0.512606 2.66958 0.128233 2.20408 0.12607L1.82698 0.119563C1.36382 0.119883 1.01315 0.504081 1.01099 0.968328L0.94713 14.7149C0.944967 15.1804 1.30609 15.5611 1.77134 15.5633Z" fill="#808080"/>
    </g>
    <defs>
    <clipPath id="clip0_265_249">
    <rect width="15.4478" height="15.4478" fill="white" transform="translate(16.0254 15.6296) rotate(-179.734)"/>
        </clipPath>
    </defs>
</svg>
