<svg width="18" height="18" viewBox="0 0 18 18" fill="none" xmlns="http://www.w3.org/2000/svg">
    <g clip-path="url(#clip0_288_218)">
        <path d="M9.00255 18.002C13.9729 18.002 18.0022 13.9727 18.0022 9.00237C18.0022 4.03201 13.9729 0.00274658 9.00255 0.00274658C4.0322 0.00274658 0.00292969 4.03201 0.00292969 9.00237C0.00292969 13.9727 4.0322 18.002 9.00255 18.002Z" fill="white"/>
        <path d="M17.4856 5.99924H11.9404C12.1813 7.92179 12.1827 10.0402 11.9451 11.9651H17.4974C17.8216 11.0364 17.9998 10.0392 17.9998 9.00008C17.9999 7.94736 17.8176 6.93784 17.4856 5.99924Z" fill="#2B479D"/>
        <path d="M11.9404 5.99922H17.4855C17.4847 5.99637 17.4838 5.99397 17.4827 5.99139C16.3309 2.74361 13.368 0.354115 9.80811 0.0369263C11.1858 0.792069 11.5883 3.18457 11.9404 5.99922Z" fill="#EFECEC"/>
        <path d="M9.80859 17.9626C13.3748 17.6449 16.3419 15.2471 17.4892 11.9907C17.4922 11.982 17.4948 11.9734 17.4979 11.9651H11.9454C11.596 14.795 11.1918 17.2043 9.80859 17.9626Z" fill="#E63026"/>
        <path d="M0 9.00002C0 10.0393 0.178488 11.0364 0.502326 11.965H12.4083C12.6462 10.0399 12.6445 7.92173 12.4039 5.99918H0.514297C0.182326 6.93782 0 7.94734 0 9.00002Z" fill="#3757A6"/>
        <path d="M0.51701 5.99143C0.516174 5.99398 0.5153 5.99641 0.51416 5.99926H12.4038C12.0514 3.18457 11.1857 0.79211 9.80813 0.0369668C9.54167 0.0133686 9.27225 3.0518e-05 8.99971 3.0518e-05C5.08457 -7.48233e-06 1.75517 2.50045 0.51701 5.99143Z" fill="#EFEFEF"/>
        <path d="M12.4084 11.9651H0.502441C0.505443 11.9735 0.508255 11.982 0.511105 11.9906C1.74433 15.4905 5.07852 17.9999 8.99993 17.9999C9.2725 17.9999 9.54192 17.9865 9.80834 17.9626C11.1917 17.2044 12.059 14.795 12.4084 11.9651Z" fill="#E73B36"/>
    </g>
    <defs>
        <clipPath id="clip0_288_218">
            <rect width="18" height="18" fill="white"/>
        </clipPath>
    </defs>
</svg>
