<svg width="20" height="21" viewBox="0 0 20 21" fill="none" xmlns="http://www.w3.org/2000/svg">
    <path d="M14.2857 13.2H13.3714L13.0286 12.84C14.1715 11.52 14.8572 9.72 14.8572 7.8C14.8571 3.48 11.5429 0 7.42857 0C3.31429 0 0 3.48 0 7.8C0 12.12 3.31429 15.6 7.42857 15.6C9.25714 15.6 10.9714 14.88 12.2286 13.68L12.5714 14.04V15L18.2857 21L20 19.2L14.2857 13.2ZM7.42857 13.2C4.57143 13.2 2.28571 10.8 2.28571 7.8C2.28571 4.8 4.57143 2.4 7.42857 2.4C10.2857 2.4 12.5714 4.8 12.5714 7.8C12.5714 10.8 10.2857 13.2 7.42857 13.2Z" fill="#808080"/>
</svg>
