<svg width="18" height="18" viewBox="0 0 18 18" fill="none" xmlns="http://www.w3.org/2000/svg">
    <g clip-path="url(#clip0_288_231)">
        <path d="M9 18C11.8797 18 14.4412 16.6465 16.0885 14.5423H11.3483C10.7364 16.5821 10.3949 18 9 18Z" fill="#C42126"/>
        <path d="M8.46595 17.9846C8.4644 17.9846 8.46298 17.9843 8.46143 17.9843C8.46298 17.9843 8.46453 17.9846 8.46595 17.9846Z" fill="#C42126"/>
        <path d="M11.3483 3.45774H16.0886C14.4411 1.35386 11.8796 0 9 0C10.3949 0 10.7364 1.41793 11.3483 3.45774Z" fill="#C42126"/>
        <path d="M8.46143 0.0156857C8.46298 0.0156857 8.4644 0.0153135 8.46595 0.0153135C8.46453 0.0152603 8.46298 0.0152603 8.46143 0.0156857Z" fill="#C42126"/>
        <path d="M16.0885 3.45776H11.3481C12.3048 6.64638 12.3048 11.3541 11.3481 14.5422H16.0881C17.2846 13.0143 17.9999 11.0915 17.9999 9.00008C18 6.90885 17.2848 4.98586 16.0885 3.45776Z" fill="#FFC40C"/>
        <path d="M9.00007 17.9995C8.82101 17.9995 8.64309 17.9944 8.46631 17.9845C8.6456 17.9941 8.82386 17.9995 9.00007 17.9995Z" fill="#C42126"/>
        <path d="M8.46631 0.0152775C8.64305 0.00508024 8.82101 0 9.00007 0C8.82386 0 8.6456 0.00563245 8.46631 0.0152775Z" fill="#C42126"/>
        <path d="M12.0101 14.5423H1.91162C3.45533 16.5143 5.80238 17.8271 8.46104 17.9842C8.46275 17.9842 8.46431 17.9845 8.46602 17.9845C8.6428 17.9947 8.82072 18 8.99978 18C10.3947 18 11.3981 16.5821 12.0101 14.5423Z" fill="#D32030"/>
        <path d="M1.91162 3.45774H12.0102C11.3981 1.41793 10.3947 0 8.99982 0C8.82076 0 8.64284 0.00524412 8.46606 0.0157704C8.46435 0.0157704 8.46279 0.0160364 8.46108 0.0160364C5.80238 0.173094 3.45533 1.48603 1.91162 3.45774Z" fill="#D32030"/>
        <path d="M0 9.00008C0 11.0915 0.715215 13.0143 1.91175 14.5422H12.0103C12.967 11.3539 12.967 6.64619 12.0103 3.45776H1.91175C0.715215 4.98586 0 6.90885 0 9.00008Z" fill="#FFD034"/>
    </g>
    <defs>
        <clipPath id="clip0_288_231">
            <rect width="18" height="18" fill="white"/>
        </clipPath>
    </defs>
</svg>
