<svg width="12" height="12" viewBox="0 0 12 12" fill="none" xmlns="http://www.w3.org/2000/svg">
    <path d="M6.00319 6.29395C5.86163 6.28452 5.71764 6.32912 5.61089 6.4388L1.20838 10.9481C1.01415 11.1472 1.01771 11.4662 1.21633 11.6609C1.41497 11.8557 1.73339 11.8521 1.92813 11.653L6.01625 7.46559L10.1967 11.5608C10.3953 11.7556 10.7138 11.752 10.908 11.5529C11.1022 11.3537 11.0987 11.0348 10.9001 10.8401L6.39813 6.43C6.28896 6.32276 6.14455 6.28186 6.00319 6.29395ZM5.54347 0.391048L0.146007 5.91978C-0.0482237 6.11893 -0.044669 6.43783 0.153953 6.63258C0.352593 6.82734 0.671502 6.82379 0.865244 6.62465L5.94884 1.41785L11.1467 6.51007C11.3454 6.70483 11.6638 6.70128 11.8585 6.50213C12.0528 6.30299 12.0492 5.98408 11.8506 5.78934L6.33125 0.382793C6.22208 0.275525 6.07714 0.234652 5.93581 0.247231C5.79422 0.237279 5.65024 0.28188 5.54347 0.391048Z" fill="black"/>
</svg>
