<svg width="25" height="25" viewBox="0 0 25 25" fill="none" xmlns="http://www.w3.org/2000/svg">
    <g clip-path="url(#clip0_288_187)">
        <path d="M0.580775 25C0.440394 25 0.303828 24.9445 0.202548 24.8421C0.0690335 24.707 0.0175351 24.511 0.0676984 24.3277L1.69295 18.3928C0.681102 16.563 0.147616 14.4932 0.148379 12.392C0.15124 5.55897 5.71192 0 12.5444 0C15.8584 0.00133515 18.9724 1.29223 21.3129 3.63445C23.653 5.97687 24.9412 9.09061 24.9403 12.402C24.9372 19.2352 19.3766 24.7946 12.5444 24.7946C12.5444 24.7946 12.5393 24.7946 12.5391 24.7946C10.5434 24.7938 8.56494 24.3074 6.80331 23.3862L0.715625 24.9826C0.670993 24.9943 0.625598 25 0.580775 25Z" fill="#E5E5E5"/>
        <path d="M0.580566 24.4681L2.26361 18.322C1.22544 16.5232 0.679367 14.4827 0.68013 12.3923C0.6828 5.85253 6.00468 0.531982 12.5442 0.531982C15.7177 0.533318 18.6964 1.76852 20.9364 4.01041C23.1762 6.25231 24.4093 9.23235 24.4081 12.4018C24.4053 18.9413 19.0826 24.2626 12.5442 24.2626C12.5438 24.2626 12.5444 24.2626 12.5442 24.2626H12.5391C10.5535 24.2619 8.60268 23.7639 6.86986 22.8188L0.580566 24.4681ZM7.16111 20.6717L7.52141 20.8851C9.03508 21.7835 10.7706 22.2586 12.5404 22.2595H12.5442C17.979 22.2595 22.4025 17.8368 22.4048 12.401C22.4058 9.76679 21.3812 7.28972 19.5194 5.42643C17.6574 3.56314 15.1819 2.53641 12.5478 2.53527C7.10866 2.53527 2.68533 6.95746 2.68323 12.393C2.68246 14.2557 3.20355 16.0696 4.1908 17.6394L4.4254 18.0124L3.429 21.6501L7.16111 20.6717Z" fill="white"/>
        <path d="M0.993164 24.0539L2.61803 18.1204C1.61553 16.3839 1.08853 14.4138 1.0891 12.396C1.09158 6.08271 6.22941 0.946411 12.5422 0.946411C15.6061 0.947746 18.4818 2.14022 20.6438 4.30449C22.8064 6.46876 23.9966 9.34561 23.9954 12.405C23.9927 18.7185 18.8547 23.8554 12.5427 23.8554C12.5422 23.8554 12.5429 23.8554 12.5427 23.8554H12.5376C10.6209 23.8546 8.73738 23.3736 7.06464 22.4619L0.993164 24.0539Z" fill="#64B161"/>
        <path d="M0.580566 24.4681L2.26361 18.322C1.22544 16.5232 0.679367 14.4827 0.68013 12.3923C0.6828 5.85253 6.00468 0.531982 12.5442 0.531982C15.7177 0.533318 18.6964 1.76852 20.9364 4.01041C23.1762 6.25231 24.4093 9.23235 24.4081 12.4018C24.4053 18.9413 19.0826 24.2626 12.5442 24.2626C12.5438 24.2626 12.5444 24.2626 12.5442 24.2626H12.5391C10.5535 24.2619 8.60268 23.7639 6.86986 22.8188L0.580566 24.4681ZM7.16111 20.6717L7.52141 20.8851C9.03508 21.7835 10.7706 22.2586 12.5404 22.2595H12.5442C17.979 22.2595 22.4025 17.8368 22.4048 12.401C22.4058 9.76679 21.3812 7.28972 19.5194 5.42643C17.6574 3.56314 15.1819 2.53641 12.5478 2.53527C7.10866 2.53527 2.68533 6.95746 2.68323 12.393C2.68246 14.2557 3.20355 16.0696 4.1908 17.6394L4.4254 18.0124L3.429 21.6501L7.16111 20.6717Z" fill="white"/>
        <path fill-rule="evenodd" clip-rule="evenodd" d="M9.57902 7.43392C9.357 6.9403 9.12316 6.93038 8.91183 6.92179C8.73902 6.91436 8.54123 6.91474 8.34382 6.91474C8.14622 6.91474 7.82502 6.98912 7.55341 7.28572C7.28162 7.58231 6.51562 8.29947 6.51562 9.75802C6.51562 11.2168 7.57802 12.6261 7.72622 12.8241C7.87442 13.0219 9.777 16.1106 12.79 17.2989C15.2942 18.2865 15.8036 18.0901 16.3472 18.0407C16.8908 17.9913 18.101 17.3235 18.3481 16.6313C18.5952 15.9392 18.5952 15.346 18.521 15.2218C18.4469 15.0984 18.2492 15.0242 17.9528 14.876C17.6564 14.7278 16.199 14.0105 15.9272 13.9117C15.6554 13.8127 15.4578 13.7635 15.2602 14.0602C15.0625 14.3566 14.4948 15.0242 14.3218 15.2218C14.1488 15.42 13.9758 15.4448 13.6794 15.2964C13.383 15.1478 12.4282 14.835 11.2956 13.8251C10.4144 13.0394 9.81934 12.069 9.64635 11.7722C9.47354 11.4758 9.64349 11.3293 9.77662 11.1674C10.0164 10.8757 10.4186 10.3514 10.5174 10.1538C10.6162 9.95581 10.5668 9.78282 10.4928 9.63442C10.4186 9.48622 9.84242 8.02024 9.57902 7.43392Z" fill="white"/>
    </g>
    <defs>
        <clipPath id="clip0_288_187">
            <rect width="25" height="25" fill="white"/>
        </clipPath>
    </defs>
</svg>
